<?xml version="1.0" encoding="UTF-8"?><svg id="uuid-20568c60-745f-47e1-9555-e38d10e40446" xmlns="http://www.w3.org/2000/svg" width="90" height="90" viewBox="0 0 90 90"><path d="M43.02,71.87C16.08,72.77-.19,77.27,0,83.17c.1,3.08,4.7,4.94,12.9,6.83-2.13-2.23-2.13-6.67,30.64-6.67,35.08,0,35.56,3.04,33.99,5.46,7.92-2.2,12.57-4.99,12.47-7.88-.2-5.89-20.03-9.94-46.98-9.04Z" fill="#000" stroke-width="0"/><path d="M47.94,69.59c9.32,0,17.98.61,25.19,1.64,2.75-15.19,8.31-46.15,8.31-64.98C66.22-4.84,25.99.08,10.77,11.18c0,18.75,5.51,46.77,8.27,60.65,7.84-1.4,17.91-2.24,28.9-2.24ZM72.49,7.5c-14.61-3.66-43.23.63-53.72,8.28,0,7.23.43,21.17.96,35.54-2.03-11.41-4.29-26.51-4.29-36.97C26.85,6.04,58.13.84,72.49,7.5Z" fill="#000" stroke-width="0"/></svg>